<svg width="1200" height="1600" viewBox="0 0 1200 1600" fill="none" xmlns="http://www.w3.org/2000/svg">
  <rect width="1200" height="1600" fill="#09090B"/>
  <rect width="1200" height="1600" fill="url(#bg)"/>
  <circle cx="320" cy="280" r="220" fill="#FB923C" fill-opacity="0.16"/>
  <circle cx="890" cy="1120" r="280" fill="#F59E0B" fill-opacity="0.12"/>
  <path d="M600 430C520 430 438 520 438 640C438 760 515 846 600 846C685 846 762 760 762 640C762 520 680 430 600 430Z" fill="#1F2937" stroke="#FDE68A" stroke-opacity="0.22" stroke-width="10"/>
  <path d="M470 370L390 182M505 340L465 160M730 370L810 182M695 340L735 160" stroke="#FDBA74" stroke-opacity="0.4" stroke-width="18" stroke-linecap="round"/>
  <path d="M420 1080L520 820M780 1080L680 820M520 820L600 1040L680 820" stroke="#FDE68A" stroke-opacity="0.22" stroke-width="18" stroke-linecap="round"/>
  <path d="M600 540C565 540 540 570 540 605C540 640 565 670 600 670C635 670 660 640 660 605C660 570 635 540 600 540Z" fill="#FB923C" fill-opacity="0.9"/>
  <defs>
    <linearGradient id="bg" x1="182" y1="145" x2="982" y2="1484" gradientUnits="userSpaceOnUse">
      <stop stop-color="#1C1917"/>
      <stop offset="0.55" stop-color="#111827"/>
      <stop offset="1" stop-color="#0A0A0A"/>
    </linearGradient>
  </defs>
</svg>
