<svg width="1200" height="1600" viewBox="0 0 1200 1600" fill="none" xmlns="http://www.w3.org/2000/svg">
  <rect width="1200" height="1600" fill="#020617"/>
  <rect width="1200" height="1600" fill="url(#bg)"/>
  <circle cx="600" cy="260" r="180" fill="#BFDBFE" fill-opacity="0.16"/>
  <path d="M380 1080C360 920 420 760 520 650C590 572 610 480 600 382" stroke="#93C5FD" stroke-opacity="0.28" stroke-width="20" stroke-linecap="round"/>
  <path d="M600 1120C570 900 620 720 720 600C780 528 805 450 790 356" stroke="#E0F2FE" stroke-opacity="0.26" stroke-width="20" stroke-linecap="round"/>
  <path d="M820 1080C820 900 760 740 675 630C622 560 610 480 632 390" stroke="#60A5FA" stroke-opacity="0.25" stroke-width="20" stroke-linecap="round"/>
  <circle cx="538" cy="562" r="56" fill="#DBEAFE" fill-opacity="0.85"/>
  <circle cx="772" cy="520" r="56" fill="#DBEAFE" fill-opacity="0.85"/>
  <circle cx="650" cy="344" r="56" fill="#DBEAFE" fill-opacity="0.85"/>
  <path d="M430 1270C540 1180 660 1180 770 1270" stroke="#E0F2FE" stroke-opacity="0.18" stroke-width="14" stroke-linecap="round"/>
  <defs>
    <linearGradient id="bg" x1="177" y1="89" x2="1011" y2="1494" gradientUnits="userSpaceOnUse">
      <stop stop-color="#111827"/>
      <stop offset="0.45" stop-color="#0F172A"/>
      <stop offset="1" stop-color="#020617"/>
    </linearGradient>
  </defs>
</svg>
